<svg width="851" height="462" viewBox="0 0 851 462" fill="none" xmlns="http://www.w3.org/2000/svg">
<path d="M0.5 9.99999C0.5 4.75329 4.75329 0.5 10 0.5H841C846.247 0.5 850.5 4.7533 850.5 10V452C850.5 457.247 846.247 461.5 841 461.5H10C4.75329 461.5 0.5 457.247 0.5 452V9.99999Z" fill="#5C5C5C" fill-opacity="0.15" stroke="#424242"/>
<g filter="url(#filter0_d_125_117)">
<rect x="491" y="265" width="142" height="50" rx="15" fill="#E7E7E7"/>
</g>
<path d="M507.824 297.162C506.042 297.018 504.836 296.172 504.44 295.848C504.17 295.632 504.206 295.416 504.368 295.11L504.998 293.922C505.16 293.634 505.322 293.598 505.574 293.778C506.186 294.246 506.852 294.678 507.824 294.876V291.852C506.168 290.97 504.188 289.944 504.188 287.802C504.188 286.002 505.43 284.472 507.824 284.238V283.662C507.824 283.464 507.986 283.32 508.166 283.32H508.508C508.688 283.32 508.85 283.464 508.85 283.662V284.256C510.47 284.4 511.712 285.21 512.198 285.57C512.414 285.696 512.378 286.02 512.306 286.146L511.298 287.568C511.154 287.766 510.956 287.784 510.812 287.676C510.29 287.298 509.822 286.938 508.85 286.596V289.242C510.416 290.124 512.666 291.006 512.666 293.454C512.666 295.308 511.226 296.946 508.85 297.162V299.034C508.85 299.214 508.688 299.358 508.508 299.358H508.166C507.986 299.358 507.824 299.214 507.824 299.034V297.162ZM507.824 288.81V286.47C507.248 286.542 506.798 286.956 506.798 287.406C506.798 288.054 507.104 288.378 507.824 288.81ZM508.85 294.93C509.408 294.786 509.822 294.372 509.822 293.814C509.822 293.256 509.48 292.734 508.85 292.302V294.93ZM516.475 296.64V288.306H514.693C514.513 288.306 514.369 288.144 514.369 287.946V286.776C514.369 286.632 514.423 286.56 514.477 286.506L516.889 284.616C517.087 284.472 517.285 284.4 517.537 284.4H518.887C519.067 284.4 519.229 284.562 519.229 284.742V296.64C519.229 296.838 519.067 297 518.887 297H516.835C516.619 297 516.475 296.838 516.475 296.64ZM526.566 297.18C523.542 297.18 521.832 294.75 521.832 290.7C521.832 286.632 523.542 284.22 526.566 284.22C529.59 284.22 531.318 286.632 531.318 290.7C531.318 294.75 529.59 297.18 526.566 297.18ZM526.566 294.57C527.7 294.57 528.492 293.148 528.492 290.7C528.492 288.27 527.7 286.848 526.566 286.848C525.45 286.848 524.658 288.27 524.658 290.7C524.658 293.148 525.45 294.57 526.566 294.57ZM532.896 295.236C532.896 294.228 533.706 293.454 534.804 293.454C535.938 293.454 536.928 294.264 536.928 296.082C536.928 298.062 536.118 299.538 535.326 300.654C535.2 300.816 535.02 300.834 534.84 300.69L534.12 300.186C533.958 300.042 533.994 299.844 534.12 299.664C534.696 298.836 535.2 297.846 535.2 296.946C535.2 296.892 535.2 296.838 535.182 296.766C534.984 296.91 534.696 296.982 534.408 296.982C533.418 296.982 532.896 296.19 532.896 295.236ZM538.441 292.158C538.441 286.704 542.959 284.562 544.669 284.058C544.957 283.968 545.155 284.094 545.245 284.346L545.785 285.786C545.857 286.002 545.803 286.2 545.425 286.326C544.561 286.596 542.149 287.532 541.699 289.314C542.185 289.098 542.959 288.936 543.463 288.936C545.209 288.936 547.153 290.214 547.153 292.95C547.153 295.29 545.227 297.198 542.905 297.198C540.043 297.198 538.441 295.056 538.441 292.158ZM541.087 292.86C541.087 293.832 541.897 294.642 542.869 294.642C543.859 294.642 544.651 293.832 544.651 292.86C544.651 291.888 543.859 291.06 542.869 291.06C541.897 291.06 541.087 291.888 541.087 292.86ZM553.742 297.18C550.718 297.18 549.008 294.75 549.008 290.7C549.008 286.632 550.718 284.22 553.742 284.22C556.766 284.22 558.494 286.632 558.494 290.7C558.494 294.75 556.766 297.18 553.742 297.18ZM553.742 294.57C554.876 294.57 555.668 293.148 555.668 290.7C555.668 288.27 554.876 286.848 553.742 286.848C552.626 286.848 551.834 288.27 551.834 290.7C551.834 293.148 552.626 294.57 553.742 294.57ZM565.238 297.18C562.214 297.18 560.504 294.75 560.504 290.7C560.504 286.632 562.214 284.22 565.238 284.22C568.262 284.22 569.99 286.632 569.99 290.7C569.99 294.75 568.262 297.18 565.238 297.18ZM565.238 294.57C566.372 294.57 567.164 293.148 567.164 290.7C567.164 288.27 566.372 286.848 565.238 286.848C564.122 286.848 563.33 288.27 563.33 290.7C563.33 293.148 564.122 294.57 565.238 294.57ZM571.568 295.236C571.568 294.228 572.378 293.454 573.476 293.454C574.61 293.454 575.6 294.264 575.6 296.082C575.6 298.062 574.79 299.538 573.998 300.654C573.872 300.816 573.692 300.834 573.512 300.69L572.792 300.186C572.63 300.042 572.666 299.844 572.792 299.664C573.368 298.836 573.872 297.846 573.872 296.946C573.872 296.892 573.872 296.838 573.854 296.766C573.656 296.91 573.368 296.982 573.08 296.982C572.09 296.982 571.568 296.19 571.568 295.236ZM581.955 297.18C578.931 297.18 577.221 294.75 577.221 290.7C577.221 286.632 578.931 284.22 581.955 284.22C584.979 284.22 586.707 286.632 586.707 290.7C586.707 294.75 584.979 297.18 581.955 297.18ZM581.955 294.57C583.089 294.57 583.881 293.148 583.881 290.7C583.881 288.27 583.089 286.848 581.955 286.848C580.839 286.848 580.047 288.27 580.047 290.7C580.047 293.148 580.839 294.57 581.955 294.57ZM593.451 297.18C590.427 297.18 588.717 294.75 588.717 290.7C588.717 286.632 590.427 284.22 593.451 284.22C596.475 284.22 598.203 286.632 598.203 290.7C598.203 294.75 596.475 297.18 593.451 297.18ZM593.451 294.57C594.585 294.57 595.377 293.148 595.377 290.7C595.377 288.27 594.585 286.848 593.451 286.848C592.335 286.848 591.543 288.27 591.543 290.7C591.543 293.148 592.335 294.57 593.451 294.57ZM604.947 297.18C601.923 297.18 600.213 294.75 600.213 290.7C600.213 286.632 601.923 284.22 604.947 284.22C607.971 284.22 609.699 286.632 609.699 290.7C609.699 294.75 607.971 297.18 604.947 297.18ZM604.947 294.57C606.081 294.57 606.873 293.148 606.873 290.7C606.873 288.27 606.081 286.848 604.947 286.848C603.831 286.848 603.039 288.27 603.039 290.7C603.039 293.148 603.831 294.57 604.947 294.57ZM615.129 294.372V291.744H612.501C612.321 291.744 612.159 291.582 612.159 291.402V290.142C612.159 289.962 612.321 289.8 612.501 289.8H615.129V287.154C615.129 286.974 615.291 286.83 615.471 286.83H616.731C616.911 286.83 617.073 286.974 617.073 287.154V289.8H619.719C619.899 289.8 620.043 289.962 620.043 290.142V291.402C620.043 291.582 619.899 291.744 619.719 291.744H617.073V294.372C617.073 294.552 616.911 294.696 616.731 294.696H615.471C615.291 294.696 615.129 294.552 615.129 294.372Z" fill="#991C96"/>
<g filter="url(#filter1_d_125_117)">
<rect x="673" y="131" width="142" height="50" rx="15" fill="#E7E7E7"/>
</g>
<path d="M687.824 163.162C686.042 163.018 684.836 162.172 684.44 161.848C684.17 161.632 684.206 161.416 684.368 161.11L684.998 159.922C685.16 159.634 685.322 159.598 685.574 159.778C686.186 160.246 686.852 160.678 687.824 160.876V157.852C686.168 156.97 684.188 155.944 684.188 153.802C684.188 152.002 685.43 150.472 687.824 150.238V149.662C687.824 149.464 687.986 149.32 688.166 149.32H688.508C688.688 149.32 688.85 149.464 688.85 149.662V150.256C690.47 150.4 691.712 151.21 692.198 151.57C692.414 151.696 692.378 152.02 692.306 152.146L691.298 153.568C691.154 153.766 690.956 153.784 690.812 153.676C690.29 153.298 689.822 152.938 688.85 152.596V155.242C690.416 156.124 692.666 157.006 692.666 159.454C692.666 161.308 691.226 162.946 688.85 163.162V165.034C688.85 165.214 688.688 165.358 688.508 165.358H688.166C687.986 165.358 687.824 165.214 687.824 165.034V163.162ZM687.824 154.81V152.47C687.248 152.542 686.798 152.956 686.798 153.406C686.798 154.054 687.104 154.378 687.824 154.81ZM688.85 160.93C689.408 160.786 689.822 160.372 689.822 159.814C689.822 159.256 689.48 158.734 688.85 158.302V160.93ZM694.963 161.65C694.711 161.362 694.693 161.236 694.909 161.02L696.043 159.832C696.169 159.706 696.403 159.706 696.529 159.814C697.231 160.39 697.843 160.696 698.743 160.696C699.733 160.696 700.507 159.958 700.507 158.932C700.507 157.798 699.787 157.15 698.581 157.15H695.737C695.359 157.15 695.161 156.79 695.161 156.484V150.742C695.161 150.562 695.305 150.4 695.503 150.4H701.479C701.677 150.4 701.839 150.562 701.839 150.742V152.38C701.839 152.56 701.677 152.722 701.479 152.722H697.663V154.72H698.977C701.533 154.72 703.207 156.34 703.207 158.824C703.207 161.254 701.227 163.18 698.617 163.18C696.691 163.18 695.413 162.208 694.963 161.65ZM704.87 160.39C704.672 160.39 704.51 160.228 704.51 160.03V158.428C704.51 158.212 704.51 158.068 704.762 157.762L710.99 150.328C711.044 150.274 711.098 150.22 711.26 150.22H712.592C712.79 150.22 712.952 150.382 712.952 150.58V158.086H714.428C714.644 158.086 714.788 158.23 714.788 158.428V160.03C714.788 160.21 714.644 160.39 714.428 160.39H712.952V162.64C712.952 162.838 712.79 163 712.61 163H710.648C710.468 163 710.306 162.838 710.306 162.64V160.39H704.87ZM707.408 158.122V158.158H710.324V154.648H710.288L707.408 158.122ZM716.131 161.236C716.131 160.228 716.941 159.454 718.039 159.454C719.173 159.454 720.163 160.264 720.163 162.082C720.163 164.062 719.353 165.538 718.561 166.654C718.435 166.816 718.255 166.834 718.075 166.69L717.355 166.186C717.193 166.042 717.229 165.844 717.355 165.664C717.931 164.836 718.435 163.846 718.435 162.946C718.435 162.892 718.435 162.838 718.417 162.766C718.219 162.91 717.931 162.982 717.643 162.982C716.653 162.982 716.131 162.19 716.131 161.236ZM726.517 163.18C723.493 163.18 721.783 160.75 721.783 156.7C721.783 152.632 723.493 150.22 726.517 150.22C729.541 150.22 731.269 152.632 731.269 156.7C731.269 160.75 729.541 163.18 726.517 163.18ZM726.517 160.57C727.651 160.57 728.443 159.148 728.443 156.7C728.443 154.27 727.651 152.848 726.517 152.848C725.401 152.848 724.609 154.27 724.609 156.7C724.609 159.148 725.401 160.57 726.517 160.57ZM738.013 163.18C734.989 163.18 733.279 160.75 733.279 156.7C733.279 152.632 734.989 150.22 738.013 150.22C741.037 150.22 742.765 152.632 742.765 156.7C742.765 160.75 741.037 163.18 738.013 163.18ZM738.013 160.57C739.147 160.57 739.939 159.148 739.939 156.7C739.939 154.27 739.147 152.848 738.013 152.848C736.897 152.848 736.105 154.27 736.105 156.7C736.105 159.148 736.897 160.57 738.013 160.57ZM749.51 163.18C746.486 163.18 744.776 160.75 744.776 156.7C744.776 152.632 746.486 150.22 749.51 150.22C752.534 150.22 754.262 152.632 754.262 156.7C754.262 160.75 752.534 163.18 749.51 163.18ZM749.51 160.57C750.644 160.57 751.436 159.148 751.436 156.7C751.436 154.27 750.644 152.848 749.51 152.848C748.394 152.848 747.602 154.27 747.602 156.7C747.602 159.148 748.394 160.57 749.51 160.57ZM755.84 161.236C755.84 160.228 756.65 159.454 757.748 159.454C758.882 159.454 759.872 160.264 759.872 162.082C759.872 164.062 759.062 165.538 758.27 166.654C758.144 166.816 757.964 166.834 757.784 166.69L757.064 166.186C756.902 166.042 756.938 165.844 757.064 165.664C757.64 164.836 758.144 163.846 758.144 162.946C758.144 162.892 758.144 162.838 758.126 162.766C757.928 162.91 757.64 162.982 757.352 162.982C756.362 162.982 755.84 162.19 755.84 161.236ZM766.226 163.18C763.202 163.18 761.492 160.75 761.492 156.7C761.492 152.632 763.202 150.22 766.226 150.22C769.25 150.22 770.978 152.632 770.978 156.7C770.978 160.75 769.25 163.18 766.226 163.18ZM766.226 160.57C767.36 160.57 768.152 159.148 768.152 156.7C768.152 154.27 767.36 152.848 766.226 152.848C765.11 152.848 764.318 154.27 764.318 156.7C764.318 159.148 765.11 160.57 766.226 160.57ZM777.722 163.18C774.698 163.18 772.988 160.75 772.988 156.7C772.988 152.632 774.698 150.22 777.722 150.22C780.746 150.22 782.474 152.632 782.474 156.7C782.474 160.75 780.746 163.18 777.722 163.18ZM777.722 160.57C778.856 160.57 779.648 159.148 779.648 156.7C779.648 154.27 778.856 152.848 777.722 152.848C776.606 152.848 775.814 154.27 775.814 156.7C775.814 159.148 776.606 160.57 777.722 160.57ZM789.219 163.18C786.195 163.18 784.485 160.75 784.485 156.7C784.485 152.632 786.195 150.22 789.219 150.22C792.243 150.22 793.971 152.632 793.971 156.7C793.971 160.75 792.243 163.18 789.219 163.18ZM789.219 160.57C790.353 160.57 791.145 159.148 791.145 156.7C791.145 154.27 790.353 152.848 789.219 152.848C788.103 152.848 787.311 154.27 787.311 156.7C787.311 159.148 788.103 160.57 789.219 160.57ZM799.401 160.372V157.744H796.773C796.593 157.744 796.431 157.582 796.431 157.402V156.142C796.431 155.962 796.593 155.8 796.773 155.8H799.401V153.154C799.401 152.974 799.563 152.83 799.743 152.83H801.003C801.183 152.83 801.345 152.974 801.345 153.154V155.8H803.991C804.171 155.8 804.315 155.962 804.315 156.142V157.402C804.315 157.582 804.171 157.744 803.991 157.744H801.345V160.372C801.345 160.552 801.183 160.696 801.003 160.696H799.743C799.563 160.696 799.401 160.552 799.401 160.372Z" fill="#0D25B9"/>
<path d="M23 438L27.4667 437.948L31.9333 437.891L36.4 437.828L40.8667 437.759L45.3333 437.682L49.8 437.597L54.2667 437.504L58.7333 437.4L63.2 437.286L67.6667 437.16L72.1333 437.021L76.6 436.868L81.0667 436.699L85.5333 436.512L90 436.306L94.4667 436.079L98.9333 435.828L103.4 435.552L107.867 435.248L112.333 434.913L116.8 434.544L121.267 434.138L125.733 433.691L130.2 433.2L134.667 432.659L139.133 432.066L143.6 431.414L148.067 430.699L152.533 429.914L157 429.055L161.467 428.114L165.933 427.085L170.4 425.961L174.867 424.735L179.333 423.397L183.8 421.942L188.267 420.36L192.733 418.643L197.2 416.784L201.667 414.773L206.133 412.603L210.6 410.266L215.067 407.756L219.533 405.066L224 402.192L228.467 399.13L232.933 395.877L237.4 392.432L241.867 388.798L246.333 384.977L250.8 380.976L255.267 376.802L259.733 372.467L264.2 367.983L268.667 363.367L273.133 358.637L277.6 353.813L282.067 348.916L286.533 343.97L291 339L295.467 334.03L299.933 329.084L304.4 324.187L308.867 319.363L313.333 314.633L317.8 310.017L322.267 305.533L326.733 301.198L331.2 297.024L335.667 293.023L340.133 289.202L344.6 285.568L349.067 282.123L353.533 278.87L358 275.808L362.467 272.934L366.933 270.244L371.4 267.734L375.867 265.397L380.333 263.227L384.8 261.217L389.267 259.357L393.733 257.64L398.2 256.058L402.667 254.603L407.133 253.265L411.6 252.039L416.067 250.915L420.533 249.886L425 248.945L429.467 248.086L433.933 247.301L438.4 246.586L442.867 245.934L447.333 245.341L451.8 244.8L456.267 244.309L460.733 243.862L465.2 243.456L469.667 243.087L474.133 242.752L478.6 242.448L483.067 242.172L487.533 241.921L492 241.694L496.467 241.488L500.933 241.301L505.4 241.132L509.867 240.979L514.333 240.84L518.8 240.714L523.267 240.6L527.733 240.496L532.2 240.403L536.667 240.318L541.133 240.241L545.6 240.172L550.067 240.109L554.533 240.052L559 240" stroke="url(#paint0_linear_125_117)" stroke-width="3" stroke-linecap="round"/>
<path d="M23 438L29.05 437.915L35.1 437.821L41.15 437.717L47.2 437.602L53.25 437.475L59.3 437.335L65.35 437.18L71.4 437.01L77.45 436.821L83.5 436.613L89.55 436.384L95.6 436.13L101.65 435.851L107.7 435.542L113.75 435.202L119.8 434.827L125.85 434.413L131.9 433.957L137.95 433.455L144 432.902L150.05 432.293L156.1 431.622L162.15 430.884L168.2 430.072L174.25 429.18L180.3 428.199L186.35 427.123L192.4 425.942L198.45 424.646L204.5 423.227L210.55 421.674L216.6 419.974L222.65 418.118L228.7 416.092L234.75 413.884L240.8 411.48L246.85 408.867L252.9 406.032L258.95 402.961L265 399.639L271.05 396.056L277.1 392.197L283.15 388.051L289.2 383.61L295.25 378.863L301.3 373.805L307.35 368.433L313.4 362.744L319.45 356.742L325.5 350.432L331.55 343.823L337.6 336.93L343.65 329.771L349.7 322.366L355.75 314.743L361.8 306.931L367.85 298.964L373.9 290.877L379.95 282.709L386 274.5L392.05 266.291L398.1 258.123L404.15 250.036L410.2 242.069L416.25 234.257L422.3 226.634L428.35 219.229L434.4 212.07L440.45 205.177L446.5 198.568L452.55 192.258L458.6 186.256L464.65 180.567L470.7 175.195L476.75 170.137L482.8 165.39L488.85 160.949L494.9 156.803L500.95 152.944L507 149.361L513.05 146.039L519.1 142.968L525.15 140.133L531.2 137.52L537.25 135.116L543.3 132.908L549.35 130.882L555.4 129.026L561.45 127.326L567.5 125.773L573.55 124.354L579.6 123.058L585.65 121.877L591.7 120.801L597.75 119.82L603.8 118.928L609.85 118.116L615.9 117.378L621.95 116.707L628 116.098L634.05 115.545L640.1 115.043L646.15 114.587L652.2 114.173L658.25 113.798L664.3 113.458L670.35 113.149L676.4 112.87L682.45 112.616L688.5 112.387L694.55 112.179L700.6 111.99L706.65 111.82L712.7 111.665L718.75 111.525L724.8 111.398L730.85 111.283L736.9 111.179L742.95 111.085L749 111" stroke="url(#paint1_linear_125_117)" stroke-width="3" stroke-linecap="round"/>
<g filter="url(#filter2_d_125_117)">
<circle cx="23" cy="438" r="5" fill="#AC9A9A"/>
</g>
<g clip-path="url(#clip0_125_117)">
<path d="M559 247C562.866 247 566 243.866 566 240C566 236.134 562.866 233 559 233C555.134 233 552 236.134 552 240C552 243.866 555.134 247 559 247Z" fill="#FF2BC1"/>
<path opacity="0.3" d="M559 253C566.18 253 572 247.18 572 240C572 232.82 566.18 227 559 227C551.82 227 546 232.82 546 240C546 247.18 551.82 253 559 253Z" fill="#96096D"/>
</g>
<g clip-path="url(#clip1_125_117)">
<path d="M751 118C754.866 118 758 114.866 758 111C758 107.134 754.866 104 751 104C747.134 104 744 107.134 744 111C744 114.866 747.134 118 751 118Z" fill="#0D25B9"/>
<path opacity="0.3" d="M751 124C758.18 124 764 118.18 764 111C764 103.82 758.18 98 751 98C743.82 98 738 103.82 738 111C738 118.18 743.82 124 751 124Z" fill="#0D25B9"/>
</g>
<defs>
<filter id="filter0_d_125_117" x="485" y="259" width="154" height="62" filterUnits="userSpaceOnUse" color-interpolation-filters="sRGB">
<feFlood flood-opacity="0" result="BackgroundImageFix"/>
<feColorMatrix in="SourceAlpha" type="matrix" values="0 0 0 0 0 0 0 0 0 0 0 0 0 0 0 0 0 0 127 0" result="hardAlpha"/>
<feMorphology radius="1" operator="dilate" in="SourceAlpha" result="effect1_dropShadow_125_117"/>
<feOffset/>
<feGaussianBlur stdDeviation="2.5"/>
<feComposite in2="hardAlpha" operator="out"/>
<feColorMatrix type="matrix" values="0 0 0 0 0.654902 0 0 0 0 0.113725 0 0 0 0 0.639216 0 0 0 1 0"/>
<feBlend mode="normal" in2="BackgroundImageFix" result="effect1_dropShadow_125_117"/>
<feBlend mode="normal" in="SourceGraphic" in2="effect1_dropShadow_125_117" result="shape"/>
</filter>
<filter id="filter1_d_125_117" x="667" y="125" width="154" height="62" filterUnits="userSpaceOnUse" color-interpolation-filters="sRGB">
<feFlood flood-opacity="0" result="BackgroundImageFix"/>
<feColorMatrix in="SourceAlpha" type="matrix" values="0 0 0 0 0 0 0 0 0 0 0 0 0 0 0 0 0 0 127 0" result="hardAlpha"/>
<feMorphology radius="1" operator="dilate" in="SourceAlpha" result="effect1_dropShadow_125_117"/>
<feOffset/>
<feGaussianBlur stdDeviation="2.5"/>
<feComposite in2="hardAlpha" operator="out"/>
<feColorMatrix type="matrix" values="0 0 0 0 0.0509804 0 0 0 0 0.145098 0 0 0 0 0.72549 0 0 0 1 0"/>
<feBlend mode="normal" in2="BackgroundImageFix" result="effect1_dropShadow_125_117"/>
<feBlend mode="normal" in="SourceGraphic" in2="effect1_dropShadow_125_117" result="shape"/>
</filter>
<filter id="filter2_d_125_117" x="11" y="426" width="24" height="24" filterUnits="userSpaceOnUse" color-interpolation-filters="sRGB">
<feFlood flood-opacity="0" result="BackgroundImageFix"/>
<feColorMatrix in="SourceAlpha" type="matrix" values="0 0 0 0 0 0 0 0 0 0 0 0 0 0 0 0 0 0 127 0" result="hardAlpha"/>
<feMorphology radius="2" operator="dilate" in="SourceAlpha" result="effect1_dropShadow_125_117"/>
<feOffset/>
<feGaussianBlur stdDeviation="2.5"/>
<feComposite in2="hardAlpha" operator="out"/>
<feColorMatrix type="matrix" values="0 0 0 0 0.4425 0 0 0 0 0.4425 0 0 0 0 0.4425 0 0 0 1 0"/>
<feBlend mode="normal" in2="BackgroundImageFix" result="effect1_dropShadow_125_117"/>
<feBlend mode="normal" in="SourceGraphic" in2="effect1_dropShadow_125_117" result="shape"/>
</filter>
<linearGradient id="paint0_linear_125_117" x1="291" y1="240" x2="332.693" y2="445.147" gradientUnits="userSpaceOnUse">
<stop stop-color="#A71DA3"/>
<stop offset="1" stop-color="#EC0EE6" stop-opacity="0"/>
</linearGradient>
<linearGradient id="paint1_linear_125_117" x1="386" y1="111" x2="356.5" y2="423" gradientUnits="userSpaceOnUse">
<stop stop-color="#0D25B9"/>
<stop offset="1" stop-color="#0D25B9" stop-opacity="0.55"/>
</linearGradient>
<clipPath id="clip0_125_117">
<rect width="26" height="26" fill="white" transform="translate(546 227)"/>
</clipPath>
<clipPath id="clip1_125_117">
<rect width="26" height="26" fill="white" transform="translate(738 98)"/>
</clipPath>
</defs>
</svg>
