<svg width="757" height="1469" viewBox="0 0 757 1469" fill="none" xmlns="http://www.w3.org/2000/svg">
<path d="M0.110175 542.16C117.99 542.16 234.84 542.16 352.12 542.16C352.12 668.36 352.12 794.15 352.12 921.39C349.39 918.85 347.5 917.2 345.72 915.43C309.87 879.6 273.98 843.81 238.34 807.77C235.93 805.33 234.25 800.99 234.23 797.52C233.96 754.07 233.97 710.63 234.17 667.18C234.2 661.81 232.82 660.05 227.25 660.09C193.24 660.33 159.23 660.33 125.22 660.09C119.67 660.05 118.21 661.74 118.25 667.14C118.41 687.31 117.98 707.49 118.11 727.66C118.12 729.8 120.07 732.31 121.76 734C164.36 776.74 207.04 819.39 249.71 862.06C282.29 894.64 314.84 927.26 347.53 959.74C351.04 963.23 352.65 966.71 352.64 971.78C352.51 1134.6 352.54 1297.41 352.55 1460.23C352.55 1462.51 352.55 1464.79 352.55 1467.07C352.07 1467.19 351.59 1467.32 351.11 1467.44C349.62 1465.68 348.06 1463.98 346.65 1462.16C232.82 1315 119.02 1167.82 5.10017 1020.73C1.54017 1016.13 -0.0198102 1011.62 0.00018977 1005.79C0.18019 947.64 0.110165 889.49 0.100165 831.34C0.100165 829.03 0.100165 826.73 0.100165 822.96C2.71017 825.24 4.2002 826.38 5.5102 827.7C41.8402 863.98 78.2002 900.23 114.34 936.7C116.62 939 118.54 943.31 118.12 946.34C115.43 965.78 122.75 980.67 134.94 995.68C167.17 1035.34 197.83 1076.27 229.13 1116.69C230.27 1118.17 231.53 1119.55 233.71 1122.14C233.87 1118.58 234.04 1116.51 234.04 1114.43C234.05 1083.27 233.95 1052.11 234.14 1020.95C234.17 1015.98 232.8 1012.4 229.22 1008.84C154.49 934.31 79.9102 859.63 5.18018 785.1C1.45018 781.38 -0.00981023 777.7 0.00018977 772.45C0.16019 698.5 0.110175 624.55 0.110175 550.6C0.110175 548 0.110175 545.4 0.110175 542.16Z" fill="url(#paint0_linear_156_10)"/>
<path d="M404.97 1468.32C404.97 1158.85 404.97 850.87 404.97 542.43C407.52 542.3 409.65 542.09 411.79 542.09C446.46 542.07 481.13 542.21 515.8 541.93C521.27 541.89 523.88 543.94 526.39 548.48C562.08 612.97 597.95 677.35 633.78 741.76C634.83 743.64 635.92 745.49 638.68 747.21C638.68 745.03 638.68 742.85 638.68 740.68C638.68 677.27 638.77 613.85 638.55 550.44C638.53 544 639.88 541.82 646.8 541.9C680.81 542.29 714.82 542.08 748.83 542.08C751.01 542.08 753.19 542.08 756.21 542.08C756.35 544.75 756.58 547.05 756.58 549.35C756.6 702.29 756.62 855.23 756.44 1008.17C756.44 1011.75 754.99 1015.96 752.83 1018.82C734.81 1042.6 716.47 1066.13 698.2 1089.73C697.17 1091.07 695.94 1092.26 694.09 1094.3C637.25 992.06 580.75 890.44 524.25 788.82C523.71 788.9 523.17 788.98 522.63 789.07C522.63 791.76 522.63 794.46 522.63 797.15C522.63 968.08 522.66 1139.02 522.5 1309.95C522.5 1313.59 521.41 1317.94 519.26 1320.75C482.56 1368.63 445.62 1416.33 408.72 1464.06C407.85 1465.19 406.82 1466.23 404.97 1468.32Z" fill="url(#paint1_linear_156_10)"/>
<path d="M597.81 219.5H470.41V477.36H286.25V219.5H158.79L286.25 92.04L378.31 0L470.41 92.1L597.81 219.5Z" fill="url(#paint2_linear_156_10)"/>
<path d="M756.6 358.18H695.12V482.61H606.25V358.18H544.74L606.25 296.67L650.68 252.26L695.12 296.7L756.6 358.18Z" fill="url(#paint3_linear_156_10)"/>
<path d="M211.86 358.18H150.38V482.61H61.51V358.18H0L61.51 296.67L105.93 252.26L150.38 296.7L211.86 358.18Z" fill="url(#paint4_linear_156_10)"/>
<defs>
<linearGradient id="paint0_linear_156_10" x1="176.324" y1="542.156" x2="176.324" y2="1467.44" gradientUnits="userSpaceOnUse">
<stop stop-color="#CE8CFE"/>
<stop offset="1" stop-color="#8208FD" stop-opacity="0"/>
</linearGradient>
<linearGradient id="paint1_linear_156_10" x1="580.788" y1="541.889" x2="580.788" y2="1468.32" gradientUnits="userSpaceOnUse">
<stop stop-color="#CE8CFE"/>
<stop offset="1" stop-color="#8208FD" stop-opacity="0"/>
</linearGradient>
<linearGradient id="paint2_linear_156_10" x1="378.3" y1="0.0027" x2="378.3" y2="477.359" gradientUnits="userSpaceOnUse">
<stop stop-color="#CE8CFE"/>
<stop offset="1" stop-color="#8208FD" stop-opacity="0"/>
</linearGradient>
<linearGradient id="paint3_linear_156_10" x1="650.67" y1="252.255" x2="650.67" y2="482.613" gradientUnits="userSpaceOnUse">
<stop stop-color="#CE8CFE"/>
<stop offset="1" stop-color="#8208FD" stop-opacity="0"/>
</linearGradient>
<linearGradient id="paint4_linear_156_10" x1="105.929" y1="252.255" x2="105.929" y2="482.613" gradientUnits="userSpaceOnUse">
<stop stop-color="#CE8CFE"/>
<stop offset="1" stop-color="#8208FD" stop-opacity="0"/>
</linearGradient>
</defs>
</svg>
